<svg width="960" height="320" viewBox="0 0 960 320" fill="none" xmlns="http://www.w3.org/2000/svg">
  <rect width="960" height="320" rx="28" fill="#F6F6F2"/>
  <text x="58" y="56" fill="#111111" font-family="Arial, Helvetica, sans-serif" font-size="24" font-weight="600">Window / favicon direction</text>

  <g transform="translate(180 168)">
    <rect x="-76" y="-76" width="152" height="152" rx="34" fill="#0E162A"/>
    <line x1="-34" y1="0" x2="-10" y2="0" stroke="#F3F7FF" stroke-width="5"/>
    <line x1="10" y1="0" x2="34" y2="0" stroke="#F3F7FF" stroke-width="5"/>
    <line x1="0" y1="10" x2="0" y2="36" stroke="#F3F7FF" stroke-width="5"/>
    <line x1="0" y1="-34" x2="0" y2="-10" stroke="#F3F7FF" stroke-width="5"/>
    <circle cx="0" cy="-40" r="7" fill="#0E162A" stroke="#F3F7FF" stroke-width="5"/>
    <rect x="-10" y="-10" width="20" height="20" transform="rotate(45 0 0)" fill="#E03B30"/>
  </g>

  <g transform="translate(480 168)">
    <rect x="-76" y="-76" width="152" height="152" rx="34" fill="#FFFFFF" stroke="#111111" stroke-width="4"/>
    <line x1="-34" y1="0" x2="-10" y2="0" stroke="#111111" stroke-width="5"/>
    <line x1="10" y1="0" x2="34" y2="0" stroke="#111111" stroke-width="5"/>
    <line x1="0" y1="10" x2="0" y2="36" stroke="#111111" stroke-width="5"/>
    <line x1="0" y1="-34" x2="0" y2="-10" stroke="#111111" stroke-width="5"/>
    <circle cx="0" cy="-40" r="7" fill="#FFFFFF" stroke="#111111" stroke-width="5"/>
    <rect x="-10" y="-10" width="20" height="20" transform="rotate(45 0 0)" fill="#E03B30"/>
  </g>

  <g transform="translate(780 168)">
    <rect x="-76" y="-76" width="152" height="152" rx="34" fill="#0E162A"/>
    <path d="M0 -42V-8" stroke="#F1F5FF" stroke-width="5"/>
    <path d="M-34 0H34" stroke="#F1F5FF" stroke-width="5"/>
    <path d="M0 8V40" stroke="#F1F5FF" stroke-width="5"/>
    <circle cx="0" cy="-46" r="7" fill="#0E162A" stroke="#F1F5FF" stroke-width="5"/>
    <path d="M-14 0L0 -14L14 0L0 14L-14 0Z" fill="#E03B30"/>
  </g>

  <text x="180" y="274" fill="#2A2A2A" font-family="Arial, Helvetica, sans-serif" font-size="18" text-anchor="middle">Dark app icon</text>
  <text x="480" y="274" fill="#2A2A2A" font-family="Arial, Helvetica, sans-serif" font-size="18" text-anchor="middle">Light print / browser tab</text>
  <text x="780" y="274" fill="#2A2A2A" font-family="Arial, Helvetica, sans-serif" font-size="18" text-anchor="middle">Most compact mark</text>
</svg>
